<?xml version="1.0" standalone="no"?><!DOCTYPE svg PUBLIC "-//W3C//DTD SVG 1.1//EN" "http://www.w3.org/Graphics/SVG/1.1/DTD/svg11.dtd"><svg t="1727615909986" class="icon" viewBox="0 0 1024 1024" version="1.1" xmlns="http://www.w3.org/2000/svg" p-id="7299" xmlns:xlink="http://www.w3.org/1999/xlink" width="200" height="200"><path d="M277.3504 554.6496h-42.9568a42.3936 42.3936 0 0 0-42.3936 42.3936c0 33.9456 15.872 100.352 25.856 124.416 11.4688 27.8528 18.0736 45.2096 30.976 56.5248 12.9024 11.3664 28.5184 11.3152 28.5184 11.3152v-234.6496z" fill="#FFBCA7" p-id="7300"></path><path d="M258.7136 725.2992s-23.9616 0-23.9616-42.6496c0-74.6496-21.3504-85.3504-21.3504-85.3504s64-7.9872 64 85.3504c0 42.6496-18.688 42.6496-18.688 42.6496z" fill="#FFAD93" p-id="7301"></path><path d="M746.5984 554.6496h42.9056c23.4496 0 42.4448 18.944 42.4448 42.3936 0 33.9456-15.872 100.352-25.856 124.416-11.4688 27.8528-18.0736 45.2096-30.976 56.5248-12.9024 11.3664-28.5184 11.3152-28.5184 11.3152v-234.6496z" fill="#FFBCA7" p-id="7302"></path><path d="M746.5984 682.6496c0-93.3376 64-85.3504 64-85.3504s-21.3504 10.7008-21.3504 85.3504c0 42.6496-23.9616 42.6496-23.9616 42.6496s-18.688 0-18.688-42.6496z" fill="#FFAD93" p-id="7303"></path><path d="M512 362.6496c-232.8064 0-256 192-256 192v128c0 64 2.816 128 39.424 192C305.2544 892.0576 430.4384 1024 512 1024c81.5104 0 206.6944-131.9424 216.576-149.3504 36.608-64 39.424-128 39.424-192v-128s-23.1936-192-256-192z" fill="#FFDBD0" p-id="7304"></path><path d="M682.6496 640H640v149.3504h42.6496V640z" fill="#FFBCA7" p-id="7305"></path><path d="M661.3504 597.2992c-64 0-85.3504 42.6496-85.3504 42.6496l21.3504 21.3504h51.712c54.9376 0 76.288-21.3504 76.288-42.6496 0 0-21.3504-21.3504-64-21.3504z" fill="#F5E9E8" p-id="7306"></path><path d="M650.5984 661.2992a32 32 0 1 0 0-64 32 32 0 0 0 0 64z" fill="#BF360C" p-id="7307"></path><path d="M576 640s18.688-21.3504 130.6624-21.3504h18.688a42.6496 42.6496 0 0 0-42.7008-42.6496c-85.2992 0-106.6496 64-106.6496 64z" fill="#212121" p-id="7308"></path><path d="M703.9488 554.6496l-128 85.3504h-21.3504l64-85.3504h85.3504z" fill="#BDBDBD" p-id="7309"></path><path d="M362.5984 597.2992c64 0 85.3504 42.6496 85.3504 42.6496l-21.3504 21.3504h-51.712c-54.9376 0-76.288-21.3504-76.288-42.6496 0 0 21.3504-21.3504 64-21.3504z" fill="#F5E9E8" p-id="7310"></path><path d="M373.248 661.2992a32 32 0 1 0 0-64 32 32 0 0 0 0 64z" fill="#212121" p-id="7311"></path><path d="M447.9488 640s-18.688-21.3504-130.6624-21.3504h-18.688c0-23.552 19.0976-42.6496 42.6496-42.6496 85.3504 0 106.7008 64 106.7008 64z" fill="#212121" p-id="7312"></path><path d="M320 554.6496l128 85.3504h21.3504l-64-85.3504H320z" fill="#BDBDBD" p-id="7313"></path><path d="M725.3504 789.2992c-85.3504 0-149.3504-106.6496-213.3504-106.6496s-128 106.6496-213.3504 106.6496H264.192c5.632 28.4672 14.9504 56.9344 31.232 85.3504C305.2544 892.0576 430.4384 1024 512 1024c81.5616 0 206.6944-131.9424 216.6272-149.3504a276.4288 276.4288 0 0 0 31.232-85.3504h-34.5088z" fill="#455A64" p-id="7314"></path><path d="M490.752 789.2992v-64l-21.3504 64s21.3504 42.6496 42.6496 42.6496c21.3504 0 42.7008-42.6496 42.7008-42.6496h-64z" fill="#37474F" p-id="7315"></path><path d="M234.752 362.6496a21.3504 21.3504 0 0 0-21.3504 21.3504v170.6496c0 11.776 9.5744 21.3504 21.3504 21.3504h554.6496c10.6496 0 21.3504-11.5712 21.3504-21.3504V384a21.3504 21.3504 0 0 0-21.3504-21.3504H234.752z" fill="#113669" p-id="7316"></path><path d="M682.752 533.2992h-320a21.3504 21.3504 0 0 1-21.3504-21.3504V426.6496c0-11.776 9.5744-21.3504 21.3504-21.3504h320c11.776 0 21.2992 9.5744 21.2992 21.3504v85.2992c0 11.776-9.5232 21.3504-21.2992 21.3504z" fill="#B2B2BC" p-id="7317"></path><path d="M589.312 434.688a10.6496 10.6496 0 0 0-15.104 0l-7.8848 7.936a48.128 48.128 0 0 0-32.9216-13.312 42.5984 42.5984 0 0 0-42.496 40.4992l-19.3536 25.344a10.4448 10.4448 0 0 0 8.3456 16.7936h50.8416c19.2512 0 29.3376-12.032 29.3376-23.9616 0-13.6192-9.8304-18.688-16.0256-18.688a10.6496 10.6496 0 0 0-10.6496 10.6496c0 1.6896 0.512 3.2256 1.1776 4.6592 0.2048 0.4608 0.512 0.8192 0.8192 1.2288a10.4448 10.4448 0 0 0 2.1504 2.3552c0.2048 0.2048 0.3072 0.4608 0.512 0.6144-1.024 0.8704-3.328 1.8432-7.3216 1.8432-11.7248 0-18.688-7.0144-18.688-18.688 0-11.776 9.5744-21.3504 21.3504-21.3504 14.848 0 22.9376 12.6976 23.2448 13.1584a10.7008 10.7008 0 0 0 16.64 2.048l16.0256-16.0256a10.6496 10.6496 0 0 0 0-15.0528z" fill="#6C6C76" p-id="7318"></path><path d="M234.752 362.6496H149.4016s24.0128-21.2992 64-21.2992c-24.0128-13.312-50.3808-38.7584-64-85.3504 26.2144 33.4848 85.3504 42.6496 85.3504 42.6496S192 256 192 149.3504c10.7008 42.6496 64 85.2992 64 85.2992s0-117.2992 106.7008-192c-21.3504 64-21.3504 106.7008-21.3504 106.7008s85.3504-128 256-149.3504C522.752 42.6496 490.752 128 490.752 128s42.6496-64 128-85.3504c-13.312 21.3504-21.3504 42.7008-21.3504 42.7008S682.752 21.3504 789.4016 0c-42.6496 32-64 64-64 64s192-3.84 256-64c-21.3504 106.6496-74.6496 213.3504-128 256 100.6592-26.9312 149.3504-64 149.3504-64s-42.7008 93.3376-149.3504 148.8896c26.624 16.4352 106.6496 21.76 106.6496 21.76s-41.984 42.7008-85.2992 42.7008h-21.3504c18.688 26.624 64 42.6496 64 42.6496s-61.952 0-104.6016-42.6496l19.2512 21.2992 21.3504 85.3504c-74.6496-85.3504-149.3504-149.3504-149.3504-149.3504s21.3504 21.3504 21.3504 109.3632c-42.6496-77.312-85.3504-109.3632-85.3504-109.3632s21.3504 37.0688 21.3504 64c-10.6496-21.2992-85.3504-64-85.3504-64H234.752z" fill="#E0E0E0" p-id="7319"></path><path d="M874.6496 405.2992c43.3152 0 85.3504-42.6496 85.3504-42.6496s-48.9984 21.3504-106.6496 21.3504c-50.688 0-85.3504-21.3504-85.3504-21.3504 34.6624 42.6496 85.3504 149.3504 85.3504 149.3504s0-53.3504-18.688-85.3504c39.9872 21.3504 82.688 21.3504 82.688 21.3504l-42.7008-42.7008zM746.8032 277.3504C808.1408 272.0256 853.4528 256 853.4528 256c53.3504-42.6496 106.7008-149.3504 128-256 0 0-42.6496 149.3504-234.6496 277.3504zM789.4016 330.6496c26.624 10.7008 64 10.7008 64 10.7008v-0.4608c106.6496-55.552 149.3504-148.8896 149.3504-148.8896s-85.3504 93.3376-213.3504 138.6496zM512.0512 362.6496c-18.6368-26.624-21.2992-64-21.2992-64s-18.688 16.0256-21.3504 42.7008C456.0896 301.3632 458.752 256 458.752 256s-18.688 16.0256-32 42.6496c0-66.6624 42.6496-128 42.6496-128S394.752 192 362.752 256c0-106.6496 64-189.3376 64-189.3376-56.832 40.1408-85.3504 82.688-85.3504 82.688s-32 42.6496-37.376 85.2992c0 0-5.2736-21.2992-5.2736-42.6496 0-85.3504 21.2992-111.4112 21.2992-111.4112-63.744 70.8608-64 154.112-64 154.112S202.752 192 192.0512 149.2992c0 106.6496 42.7008 149.2992 42.7008 149.2992S175.616 289.4848 149.4016 256c13.6192 46.592 39.9872 71.9872 64 85.3504-39.9872 0-64 21.2992-64 21.2992h362.6496z" fill="#BDBDBD" p-id="7320"></path><path d="M512 362.7008s10.6496-117.3504 128-173.3632c0 0-85.3504 66.6624-85.3504 173.3632M234.8032 576l21.3504 106.6496 21.2992-106.6496h-42.6496zM789.504 576l-21.3504 106.6496-21.3504-106.6496h42.6496z" fill="#BDBDBD" p-id="7321"></path></svg>