<?xml version="1.0" standalone="no"?><!DOCTYPE svg PUBLIC "-//W3C//DTD SVG 1.1//EN" "http://www.w3.org/Graphics/SVG/1.1/DTD/svg11.dtd"><svg t="1727615903774" class="icon" viewBox="0 0 1039 1024" version="1.1" xmlns="http://www.w3.org/2000/svg" p-id="6998" xmlns:xlink="http://www.w3.org/1999/xlink" width="202.9296875" height="200"><path d="M46.446 855.547c-9.648-2.5-14.933-11.597-13.273-22.84 1.691-11.471 11.733-30.275 101.421-189.968 3.448-6.138 10.997-19.772 16.778-30.294 5.777-10.522 22.11-39.221 36.296-63.773 23.057-39.915 59.464-110.541 59.464-115.352 0-4.774 19.81-39.969 33.603-59.701 52.687-75.359 136.856-127.904 223.091-139.276 34.191-4.508 98-2.252 132.757 4.69 45.308 9.051 98.235 30.672 142.26 58.113 25.976 16.186 38.883 20.892 46.162 16.817 2.726-1.523 31.795-37.945 64.596-80.938 54.122-70.93 60.509-78.167 69.043-78.167 17.96 0 44.221 18.372 44.221 30.936 0 2.205-34.798 46.726-77.331 98.941-65.942 80.95-79.578 96.046-92.58 102.5-14.793 7.335-15.67 7.404-28.895 2.353-7.504-2.864-27.065-15.275-43.476-27.581-34.687-26.015-83.332-50.864-119.637-61.122-22.546-6.366-32.741-7.207-87.692-7.186-59.227 0.018-63.29 0.42-85.481 8.46-85.307 30.9-152.033 110.447-171.678 204.658-20.99 100.667 36.735 222.1 126.42 265.946 34.606 16.918 89.758 24.21 128.154 16.945 51.32-9.711 104.193-33.762 121.3-55.17 23.474-29.377 39.648-77.556 35.957-107.108-5.057-40.456-28.96-93.391-55.425-122.736-6.705-7.432-20.894-17.294-33.789-23.483-18.384-8.82-25.927-10.663-43.581-10.663-46.456 0-79.986 27.867-87.2 72.475-3.062 18.937 2.628 33.183 19.438 48.678 20.52 18.918 36.627 25.375 63.51 25.459 32.446 0.099 46.149 10.243 46.149 34.161 0 17.078-6.201 23.804-28.889 31.339-14.642 4.864-19.627 5.11-37.356 1.843-35.606-6.56-60.149-18.468-83.524-40.515-24.507-23.123-37.954-46.957-40.512-71.827-2.352-22.844 6.02-65.71 17.155-87.854 25.796-51.29 96.293-80.389 162.943-67.26 109.111 21.495 179.344 134.706 158.521 255.52-2.978 17.279-8.177 39.443-11.552 49.254-18.864 54.827-80.41 106.439-149.54 125.402l-27.104 7.439-260.682 1.657c-143.372 0.913-264.892 0.565-270.042-0.772z m192.47-53.43c52.477-1.742 96.1-3.856 96.941-4.694 0.84-0.841-4.84-8.363-12.624-16.724-39.318-42.215-75.146-106.222-88.827-158.687-2.285-8.768-5.183-17.113-6.441-18.54-1.259-1.426-26.195 40.57-55.42 93.322-44.866 80.999-52.605 96.902-49.746 102.244 2.111 3.946 6.645 6.312 12.042 6.285 4.762-0.018 51.596-1.462 104.075-3.207z" fill="#D81E06" p-id="6999"></path></svg>