<?xml version="1.0" standalone="no"?><!DOCTYPE svg PUBLIC "-//W3C//DTD SVG 1.1//EN" "http://www.w3.org/Graphics/SVG/1.1/DTD/svg11.dtd"><svg t="1727615907481" class="icon" viewBox="0 0 1024 1024" version="1.1" xmlns="http://www.w3.org/2000/svg" p-id="7145" xmlns:xlink="http://www.w3.org/1999/xlink" width="200" height="200"><path d="M471.84 446.46l-30.89 20.91 1.63-36.57 29.26 15.66zM332.26 501.33l-21.4 0.58 14.35-33.67 7.05 33.09z" fill="#692524" p-id="7146"></path><path d="M442.58 430.8s-1 23.22-1.62 36.57l30.88-20.91z" fill="#782726" p-id="7147"></path><path d="M910.05 433c-10.87-27-26.12-52.53-42.19-77-10-15.26-28.93-18.38-45.48-13.78-18 5-34.74 14.77-52 22.46-24.71-16.5-95.96-11.74-119.38 8.32-5.81-5.31-11.69-10.7-18.2-16.67-19.8 19.58-39.39 37.81-37.94 72.2-15.91-29-33-49.2-66.22-43.7L518 408.52c-74.54-40.12-119.8-32.58-135.6 21.81-4.42-4.84-8.83-8.13-11.2-12.51-14.48-26.69-31.35-31.38-55-14.76-2.57 1.8-5.86 3.05-7.64 5.43-11.74 15.78-34 24.7-28.21 51.79 2.49 11.68-5 25.48-8 38.32-5.57-20.91-3.72-42.53-11-60.44-7.9-19.32-24.38-35.17-38-53.74-8.83 25.19-16.68 47.58-24.52 70l-4.7 3c-5.46-20.32-17-23.11-29.58-23a30.11 30.11 0 0 0-7.37 1.22c-6.12 2.54-8 4.08-13.7 2.54-3.54-0.33-6.75-4.47-9.87-6-17.61 16.31-32.61 33.55-16.46 59.59 1.1 1.78 0.12 4.91-0.06 7.41-1.61 22.48-1.24 45.35-5.37 67.37-6.84 36.53 3.5 65.51 24 83.5 36.75 10 45-58.76 84.82-16.2 0.32 0.34 1.21 0.17 2 0.26l40.22-19c14.36 22.29 34.38 26.24 53 6.72 6.12-6.4 7.42-17.7 10-27 2.45-8.77 3.71-17.87 5.52-27l42 68.4c6.58-7.95 11.23-13 15.25-18.56 5.07-7 9.63-14.33 14.53-21.7 35.67 33.75 51.45 30.69 61-8.51C506 601 548.06 614.35 590 628.18c10.78 3.55 20.85 4.93 23.24-8.83 4-22.91 16.45-37.47 38.28-44.63 0 0 17.53-23.25 14.62-30.15-12.84-30.41 5.58-56.91 4.43-85.38 3.73 37.23-4.48 76.67 26.44 106.73 10.15-1.21 20.1-3.4 30-3.33 14.11 0.1 22.8-3.33 23.19-19.74 0.12-5.28 6.59-10.42 10.64-16.33 9.1 10.48 15.16 24.14 23.93 26.18 28.8 6.67 58 4.37 85.42-8.92 3.4-1.65 6.84-9.8 9.43-12.51 3.72 1.79 5.72 5.54 7.9 4.54 6.54-19.28 14.57-38.79 19.55-59 3.49-14.26 7.93-31.54 2.98-43.81zM243.9 554.79c-0.57 18.74-3 38.34-25.57 44.72-5.39 1.52-14.22 1-17.66-2.45-13.54-13.45-25.57-28.42-40.18-45.13-1.16 10.34-3 20.14-3.21 30-0.56 27.69-0.29 27.69-30 44.38-2.81-9.72-7.12-17.6-7-25.41 0.45-24.29 3.52-48.55 3.74-72.83 0.15-17.63-1.73-35.42-4.34-52.9-2.22-14.76 5.7-25.57 21-26.62 7.26-0.35 7-1.61 17.79-4.18 6.95 0.06 15.23 0.9 20.28 4.81 2.73 2.11-6.42 11.49-6.41 17.5 0 9 4.28 18.62 7.18 26.67 6.12 17 14.81 33 25.07 49.57 0-14.38-0.6-28.81 0.16-43.15 0.87-16.17 1.42-32.61 5-48.28 3.4-15 10.47-29.11 20.88-45.81 4.78 11.64 13.21 23.13 13.68 34.94 1.56 37.98 0.77 76.12-0.41 114.17z m121.27 42.88l-9.48-0.43q-7.63-31-15.28-62c-33.49 4.42-33.64 4.4-37.06 38-1.26 12.27-3.55 23.2-16.48 29.15-13.28 6.1-26.81-1-25.52-15.3 1.42-15.74 8-31.13-4.2-46.16-1.84-2.28 3.82-12.4 7.93-17.31 18.53-22.16 21.73-48.13 26.15-75.66 2.5-15.61 22.82-29 36.52-42 8-7.59 27.72-0.9 30.82 9.43 3.26 10.83 6.6 21.88 7.72 33.05 4 40.41 8 80.87 10 121.4 0.45 9.16-7.2 18.56-11.12 27.83z m79.22-47.42c-1.37 5.42-3.32 10.55-3.88 15.83-1.23 11.77-4.24 26.65-17 24.29-9.57-1.77-17.18-15.75-24.82-25-1.92-2.32-1.66-7.58-0.63-11 6.43-21.26-1.12-38.95-15.79-56.74 25.35-11.55 16.57-31.59 14.24-50-5.47-43.1 15.95-62.74 58.77-53.5 19.28 4.15 39.12 5 54.16 22 19.52 22.05 18 45.15-6.7 61.49-13.39 8.84-26.58 18-42.05 28.5l152.17 90c-22.03 12.99-74.07-2.41-168.47-45.87zM648 397.14c-3.56 36-4.86 72.26-10.46 107.88-2 12.84 11.53 25-0.71 37.23-7.5 7.51-13.75 16.26-21.83 26l-16.47-22.1c-32.15 19.78-58 9.48-67.15-29.7-4.4-18.82-1.05-39.41-1.32-59.2-0.13-9.13 2.42-19.82-1.44-27.06-7.25-13.61 0.16-23.18 5.76-32.85 1.66-2.86 11.18-2.43 16.78-1.53 12.62 2 20.27 10.24 20.46 23 0.33 21-1.16 42.08-0.64 63.1 0.24 9.73 3.38 19.4 5.21 29.09 22.16-26.89 25-57.87 27.46-87.62 2-23.28 13.54-37.78 28.56-52.71 12.15 5.25 17.06 13.47 15.79 26.47z m88.61 5.22c-1.85 0.2-3.7 0.46-8.72 1.09 0 33.34-1 65.7 0.35 98 0.88 21.52-1.24 40.11-26.52 52.1-4.64-6.12-13.8-12.7-14.51-20.08-3.74-38.81-5.34-77.82-7.72-117.39l-21.7 2.7c0-10-1.09-18.62 0.25-26.83 2.17-13.28 8.48-22.49 24.45-23.1 16.25-0.63 32.45-3.44 48.57-5.93 13.93-2.14 27.48-2.16 31.57 14.15 3.95 15.84-4.31 22.93-26.04 25.29zM877 477c-6.39 12.15-12.42 23.83-20.54 34-0.11 0.15-0.22 0.3-0.34 0.44l-0.23 0.28a83.88 83.88 0 0 1-12.69 12.73c-36.77 29.54-64.5 20.86-80.6-18q-1.62-3.93-3.09-8.25-1-3.09-2.08-6.18c-2.43-7.28-4.78-14.6-6.76-22a29.5 29.5 0 0 1-1.16-10.86 15 15 0 0 1 0.39-2c4.74-16.81 9.31-33.7 14.56-50.35 2.14-6.78 4.38-13.53 6.8-20.21 2.71-7.48 6.25-15.14 13.53-19.44 5-3 11.84-4.33 21.41-2.92a41.58 41.58 0 0 0 10-4.35c21.91-14.28 38.08-10.83 52.27 11.23C890.2 404.86 897.36 438.27 877 477z" fill="#782726" p-id="7148"></path><path d="M764.48 406.74c-5.25 16.65-9.82 33.54-14.56 50.35a15 15 0 0 0-0.39 2 15 15 0 0 1 0.39-2c4.74-16.81 9.31-33.7 14.56-50.35zM856.14 511.43l-0.23 0.28zM757.45 492q1 3.09 2.08 6.18 1.47 4.32 3.09 8.25-1.62-3.93-3.09-8.25-1.05-3.1-2.08-6.18zM816.18 359.82a41.58 41.58 0 0 1-10 4.35c-9.57-1.41-16.38-0.05-21.41 2.92 5-3 11.84-4.33 21.41-2.92a41.58 41.58 0 0 0 10-4.35c21.91-14.28 38.08-10.82 52.26 11.23 21.75 33.81 28.92 67.22 8.56 105.95-6.39 12.15-12.42 23.83-20.54 34 8.12-10.2 14.15-21.88 20.54-34 20.34-38.69 13.18-72.1-8.57-105.91-14.17-22.09-30.34-25.55-52.25-11.27z" fill="#782726" p-id="7149"></path><path d="M833.58 405.34c-6.87 3.13-14.58 5.2-20.35 9.72-4.82 3.78-9.54 10.06-10.52 15.86-2.68 16-3.8 32.29-4.61 48.51-0.24 4.83 2.59 9.82 4 14.74 4.88-1.7 10.9-2.13 14.45-5.3 17.9-15.93 30.44-34.44 27-61.46z" fill="#6D1E21" p-id="7150"></path><path d="M679.15 584.27c-0.06 8.5-0.12 16.94-1.37 24.9 3.79 13.66 11.6 22.33 27.88 24.31a44.8 44.8 0 0 0-6.34 9.55c-13.1-2.48-20.72-8.77-25.69-18.81-4.16 9.34-11.36 17.6-24.19 24.18a23.5 23.5 0 0 0-6.82-7.46c27.24-13.12 25.44-33.06 25.61-55.65zM662 601.19c-1.58 7.08-3.82 14.75-7.25 19.74L645 617.5a49.75 49.75 0 0 0 7.32-18.33z m41-2.93c-2.83 6.81-6 14.12-8.64 18.9l-8.47-2.64a101.42 101.42 0 0 0 6.4-19.09zM747.71 608.41L709.54 612v-7.07l14.62-1.37c-0.2-0.43-0.4-0.87-0.6-1.24l5.09-1.45-16.34 1.53v-19.33l33.14-3.1v11.48c5.36-3.42 11.37-8.84 14.48-14.06l9.13 2.71a70.92 70.92 0 0 1-17.51 17.72 32.92 32.92 0 0 0-6.09-5.46v6.94l-12.24 1.14a21.15 21.15 0 0 1 1.13 2.17l13.36-1.25z m-7.66 16.28a61.37 61.37 0 0 1 5.11 9.7L738 638.3a64 64 0 0 0-4.76-10.3v4.6c0 3.7-0.52 5.63-3 7s-5.29 1.66-8.79 2a27.8 27.8 0 0 0-2.06-6.17 48.83 48.83 0 0 1-3.37 5 53.33 53.33 0 0 0-6.42-4.33 39.34 39.34 0 0 0 5.48-9.07l-1.39 0.13v-14.08l30.69-2.87v14.08z m-16.93 3.46a62.84 62.84 0 0 1-3.1 6.2l3-0.28c0.66-0.07 0.86-0.28 0.86-0.86v-7l-7.08 0.67z m-1.76-38.88l14.55-1.36v-1.55l-14.55 1.36z m0 6.75l14.55-1.36v-1.56l-14.55 1.36z m1.15 24.41l12.5-1.17v-2.21l-12.5 1.17z m16 4.41l-5.23 0.49v2.2z m32.8-9.81a63.42 63.42 0 0 1-20.68 23.2 30.25 30.25 0 0 0-6.62-6.77c7.33-4.26 14.6-11.1 18.37-18.78z m-1.14-17.35a79.93 79.93 0 0 1-18.44 18.66 29 29 0 0 0-6.62-6c5.75-3.65 12.75-9.69 16.26-15.4zM774.27 630.89a58.55 58.55 0 0 0 6-18.33l8.73 1.71c-1.25 6.61-3.09 14.24-5.73 18.9z m20.2-42.1a45.49 45.49 0 0 1-8.92 11.54l-7.61-4.67a32.85 32.85 0 0 0 8.65-9.89z m17.39-5.9c-2.7 11.4-8.51 21.81-28.61 29.52a21.31 21.31 0 0 0-5.3-7c17-5.93 21.22-13.65 23.06-21.48l-20.57 1.93v-8.69l52.12-4.88s-0.06 2.54-0.19 3.72c-0.77 16.41-1.69 23.44-3.68 26.09a9.07 9.07 0 0 1-5.48 3.69 48.69 48.69 0 0 1-7.94 1.07 21.2 21.2 0 0 0-2.67-8.86 33.33 33.33 0 0 0 5.3-0.23 2.71 2.71 0 0 0 2.24-1.12c0.93-1.19 1.59-5.27 2.17-14.73z m17.38 44.81a58.92 58.92 0 0 0-3.12-8.34c-1.18 9.19-3.82 11.78-11.69 12.51l-11.32 1.06c-10.12 1-12.7-1.41-12.71-9.51v-11.93l9.53-0.9v11.81c0 2.27 0.6 2.47 4.23 2.13l9.53-0.89c3-0.29 3.57-1.37 4-7.89a26.8 26.8 0 0 0 7.94 2.5c-1.32-2.86-2.85-5.77-4.31-8.29l8.27-3.63c3.38 5.33 7.22 12.36 8.68 17.22z m-23.58-24.78c3.78 3.48 8.35 8.43 10.4 12l-8.2 5.44c-1.72-3.6-6-8.84-9.73-12.65zM879 592.43c-2 1.68-4.1 3.3-6.21 4.86l22.21-2.08v29.9l-10 0.94v-1.56l-20.51 1.92v1.82l-9.6 0.89V608.5c-3 1.58-6.08 3-9.12 4.42a49.39 49.39 0 0 0-5.7-7.25A125.59 125.59 0 0 0 863 593.93l-20.51 1.92v-8.23L863 585.7v-4.54l-14.81 1.38v-8.1l14.82-1.39v-6.35l9.52-0.89v6.35l13.23-1.24v3.38a77.77 77.77 0 0 0 6.41-8.64l8.28 3.37a100.67 100.67 0 0 1-11.5 14.24L902.3 582v8.23z m6 11.38l-20.51 1.91v2.92l20.51-1.92z m0 12.84v-2.92l-20.51 1.92v2.91z m-12.53-31.84l3-0.29c1.91-1.6 3.7-3.33 5.42-5l-8.47 0.79z" fill="#782726" p-id="7151"></path></svg>